<svg width="19" height="19" viewBox="0 0 19 19" fill="none" xmlns="http://www.w3.org/2000/svg">
<mask id="path-1-outside-1_352_123" maskUnits="userSpaceOnUse" x="2" y="0" width="17" height="17" fill="black">
<rect fill="white" x="2" width="17" height="17"/>
<path fill-rule="evenodd" clip-rule="evenodd" d="M13.9783 10.9804C14.9656 9.70699 16.1253 8.59337 15.974 6.98896C15.8226 5.38454 15.1863 4.06365 13.9783 2.99753C12.7702 1.93142 10.5991 0.95198 8.98901 1.00182C7.37888 1.05167 6.13742 1.85874 4.99761 2.99753C3.8568 4.13712 3.05292 5.37696 3.00191 6.98896C2.95089 8.60096 3.93114 10.7687 4.99761 11.9782C6.06407 13.1877 7.38389 13.8234 8.98901 13.9739C10.5941 14.1245 11.7078 12.9684 12.9804 11.9782L16.9718 15.9697C16.8757 15.9298 17.0454 16.0432 16.9718 15.9697C16.8678 15.9697 17.0679 16.0095 16.9718 15.9697C17.0758 15.9697 17.8736 16.0095 17.9697 15.9697C17.8961 16.0432 18.0658 15.9298 17.9697 15.9697C17.9299 16.0658 18.0432 15.8961 17.9697 15.9697C18.0095 15.8735 17.9697 15.0759 17.9697 14.9718C17.9697 14.8677 18.0095 15.068 17.9697 14.9718C17.9299 14.8756 18.0432 15.0454 17.9697 14.9718L13.9783 10.9804C13.9904 10.9911 13.9667 10.969 13.9783 10.9804ZM12.9804 3.99539C13.4274 4.43537 13.7347 5.41297 13.9783 5.9911C14.2218 6.56923 13.9757 6.3616 13.9783 6.98896C13.9808 7.61631 14.2171 8.40457 13.9783 8.98467C13.7395 9.56476 13.4238 10.5368 12.9804 10.9804C12.537 11.424 11.5646 11.7393 10.9847 11.9782C10.4049 12.2171 9.61611 11.9808 8.98901 11.9782C8.36191 11.9757 8.56906 12.2218 7.99116 11.9782C7.41326 11.7346 6.43527 11.4276 5.99546 10.9804C5.11654 10.0867 4.99251 8.24268 4.99761 6.98896C5.00271 5.73523 5.10929 4.88191 5.99546 3.99539C6.88163 3.10887 7.73579 3.00264 8.98901 2.99753C10.2422 2.99243 12.0871 3.11612 12.9804 3.99539Z"/>
</mask>
<path fill-rule="evenodd" clip-rule="evenodd" d="M13.9783 10.9804C14.9656 9.70699 16.1253 8.59337 15.974 6.98896C15.8226 5.38454 15.1863 4.06365 13.9783 2.99753C12.7702 1.93142 10.5991 0.95198 8.98901 1.00182C7.37888 1.05167 6.13742 1.85874 4.99761 2.99753C3.8568 4.13712 3.05292 5.37696 3.00191 6.98896C2.95089 8.60096 3.93114 10.7687 4.99761 11.9782C6.06407 13.1877 7.38389 13.8234 8.98901 13.9739C10.5941 14.1245 11.7078 12.9684 12.9804 11.9782L16.9718 15.9697C16.8757 15.9298 17.0454 16.0432 16.9718 15.9697C16.8678 15.9697 17.0679 16.0095 16.9718 15.9697C17.0758 15.9697 17.8736 16.0095 17.9697 15.9697C17.8961 16.0432 18.0658 15.9298 17.9697 15.9697C17.9299 16.0658 18.0432 15.8961 17.9697 15.9697C18.0095 15.8735 17.9697 15.0759 17.9697 14.9718C17.9697 14.8677 18.0095 15.068 17.9697 14.9718C17.9299 14.8756 18.0432 15.0454 17.9697 14.9718L13.9783 10.9804C13.9904 10.9911 13.9667 10.969 13.9783 10.9804ZM12.9804 3.99539C13.4274 4.43537 13.7347 5.41297 13.9783 5.9911C14.2218 6.56923 13.9757 6.3616 13.9783 6.98896C13.9808 7.61631 14.2171 8.40457 13.9783 8.98467C13.7395 9.56476 13.4238 10.5368 12.9804 10.9804C12.537 11.424 11.5646 11.7393 10.9847 11.9782C10.4049 12.2171 9.61611 11.9808 8.98901 11.9782C8.36191 11.9757 8.56906 12.2218 7.99116 11.9782C7.41326 11.7346 6.43527 11.4276 5.99546 10.9804C5.11654 10.0867 4.99251 8.24268 4.99761 6.98896C5.00271 5.73523 5.10929 4.88191 5.99546 3.99539C6.88163 3.10887 7.73579 3.00264 8.98901 2.99753C10.2422 2.99243 12.0871 3.11612 12.9804 3.99539Z" fill="white"/>
<path d="M4.99761 2.99753L5.13895 3.13903L5.13897 3.13902L4.99761 2.99753ZM16.9718 15.9697L17.1133 15.8283L17.1132 15.8282L16.9718 15.9697ZM17.9697 14.9718H18.1697H17.9697ZM17.9697 14.9718L18.1111 14.8304L18.1111 14.8304L17.9697 14.9718ZM13.9783 10.9804L14.1197 10.839L14.1187 10.838L13.9783 10.9804ZM12.9804 3.99539L13.1207 3.85285L12.9804 3.99539ZM5.99546 10.9804L5.85286 11.1206L5.99546 10.9804ZM4.99761 6.98896L4.79761 6.98814L4.99761 6.98896ZM14.1363 11.1029C14.6172 10.4827 15.1716 9.8638 15.5732 9.21396C15.9816 8.55332 16.2542 7.83015 16.1731 6.97017L15.7748 7.00774C15.8451 7.75218 15.6135 8.38802 15.233 9.00365C14.8458 9.63006 14.3267 10.2046 13.8202 10.8578L14.1363 11.1029ZM16.1731 6.97017C16.0172 5.31828 15.359 3.94938 14.1106 2.84758L13.8459 3.14749C15.0135 4.17792 15.628 5.4508 15.7748 7.00774L16.1731 6.97017ZM14.1106 2.84758C13.4873 2.29746 12.6227 1.77525 11.7112 1.3965C10.8012 1.01839 9.82639 0.775806 8.98282 0.80192L8.9952 1.20173C9.76176 1.178 10.6776 1.40021 11.5577 1.76589C12.4362 2.13093 13.2613 2.6315 13.8459 3.14749L14.1106 2.84758ZM8.98282 0.80192C7.3004 0.854002 6.01327 1.70006 4.85625 2.85605L5.13897 3.13902C6.26157 2.01742 7.45737 1.24933 8.9952 1.20173L8.98282 0.80192ZM4.85626 2.85604C3.69794 4.01312 2.8553 5.29858 2.80201 6.98263L3.20181 6.99528C3.25054 5.45533 4.01566 4.26112 5.13895 3.13903L4.85626 2.85604ZM2.80201 6.98263C2.77528 7.82721 3.0178 8.80168 3.39603 9.71132C3.77491 10.6225 4.2974 11.4865 4.8476 12.1105L5.14762 11.846C4.63135 11.2605 4.13049 10.4358 3.76537 9.55774C3.39962 8.67812 3.17752 7.7627 3.20181 6.99528L2.80201 6.98263ZM4.8476 12.1105C5.94976 13.3605 7.31766 14.0181 8.97034 14.1731L9.00769 13.7748C7.45012 13.6287 6.17838 13.015 5.14762 11.846L4.8476 12.1105ZM8.97034 14.1731C9.83046 14.2537 10.5537 13.982 11.2145 13.574C11.8647 13.1726 12.483 12.6186 13.1032 12.1361L12.8576 11.8204C12.2052 12.3279 11.6304 12.8471 11.0043 13.2337C10.3888 13.6137 9.75268 13.8447 9.00769 13.7748L8.97034 14.1731ZM12.839 12.1197L16.8304 16.1111L17.1132 15.8282L13.1218 11.8368L12.839 12.1197ZM16.8304 16.111C16.8329 16.1136 16.8334 16.1142 16.8324 16.1131C16.8322 16.1129 16.8271 16.1071 16.8208 16.0974C16.8177 16.0925 16.8119 16.0831 16.8064 16.07C16.8035 16.0633 16.8 16.054 16.7971 16.0426C16.7942 16.0314 16.7912 16.0157 16.7909 15.9967C16.7906 15.9775 16.793 15.9527 16.8029 15.9257C16.8131 15.8977 16.8298 15.8714 16.8529 15.8495C16.898 15.8068 16.9485 15.7978 16.9727 15.7958C16.9982 15.7937 17.0181 15.7971 17.0274 15.799C17.0381 15.8011 17.0463 15.8038 17.0511 15.8055C17.0605 15.8088 17.0669 15.8119 17.0689 15.8129C17.0716 15.8143 17.0732 15.8152 17.0736 15.8155C17.0742 15.8159 17.0745 15.816 17.0745 15.816C17.0745 15.8161 17.0748 15.8162 17.0753 15.8166C17.0758 15.817 17.0772 15.8181 17.0795 15.82C17.0812 15.8215 17.0866 15.8262 17.0932 15.8336C17.0966 15.8374 17.1022 15.844 17.1083 15.853C17.1136 15.8609 17.1243 15.8779 17.1321 15.9023C17.1395 15.9255 17.1506 15.9755 17.1283 16.0335C17.117 16.0631 17.0991 16.0887 17.0771 16.1088C17.0559 16.1283 17.0339 16.14 17.0161 16.1471C16.9984 16.1541 16.9827 16.1574 16.9712 16.159C16.9596 16.1606 16.9497 16.161 16.9424 16.1609C16.9282 16.1608 16.9172 16.1591 16.9115 16.158C16.9001 16.156 16.8929 16.1534 16.8926 16.1533C16.8912 16.1529 16.8919 16.153 16.8953 16.1544L17.0484 15.7849C17.0397 15.7813 17.0304 15.7777 17.021 15.7745C17.0126 15.7716 16.999 15.7674 16.983 15.7645C16.9749 15.763 16.962 15.7611 16.9462 15.7609C16.9381 15.7608 16.9275 15.7612 16.9152 15.7629C16.9031 15.7647 16.8869 15.768 16.8688 15.7752C16.8505 15.7825 16.8281 15.7944 16.8066 15.8142C16.7844 15.8346 16.7663 15.8604 16.7548 15.8904C16.7323 15.9491 16.7434 16 16.7511 16.0241C16.7592 16.0494 16.7705 16.0676 16.7767 16.0767C16.7836 16.0869 16.7902 16.0949 16.7949 16.1001C16.8041 16.1103 16.8128 16.1182 16.8184 16.1231C16.8302 16.1332 16.8422 16.1419 16.8522 16.1486C16.8622 16.1553 16.8748 16.163 16.8887 16.17C16.8954 16.1734 16.906 16.1785 16.919 16.183C16.9256 16.1853 16.9354 16.1884 16.9475 16.1909C16.9583 16.1931 16.9794 16.1966 17.0059 16.1944C17.0312 16.1923 17.0825 16.1831 17.1281 16.1398C17.1514 16.1177 17.1684 16.091 17.1787 16.0627C17.1887 16.0353 17.1912 16.0101 17.1909 15.9904C17.1906 15.9709 17.1875 15.9547 17.1845 15.9429C17.1814 15.9309 17.1776 15.9209 17.1745 15.9135C17.1683 15.899 17.1616 15.8878 17.1571 15.8809C17.1483 15.8672 17.1392 15.8563 17.1333 15.8496C17.1268 15.8421 17.1199 15.8349 17.1133 15.8283L16.8304 16.111ZM16.8953 16.1544C16.8986 16.1558 16.8992 16.1562 16.8979 16.1555C16.8976 16.1554 16.8907 16.152 16.8812 16.1455C16.8764 16.1422 16.8675 16.1356 16.8574 16.1257C16.8521 16.1206 16.8454 16.1133 16.8383 16.1039C16.8314 16.0947 16.8226 16.0813 16.815 16.0639C16.8074 16.0462 16.8002 16.0224 16.7989 15.9936C16.7977 15.9639 16.803 15.9332 16.816 15.9042C16.8413 15.8474 16.8845 15.8198 16.9061 15.8087C16.9288 15.797 16.9485 15.7925 16.9578 15.7907C16.9685 15.7886 16.9772 15.7879 16.9822 15.7876C16.9922 15.7871 16.9993 15.7875 17.0015 15.7877C17.0045 15.7879 17.0063 15.7882 17.0069 15.7883C17.0075 15.7884 17.0078 15.7884 17.0079 15.7884C17.0079 15.7884 17.0082 15.7885 17.0089 15.7887C17.0094 15.7888 17.0112 15.7893 17.014 15.7902C17.0162 15.7909 17.0229 15.7932 17.0319 15.7975C17.0365 15.7997 17.0441 15.8036 17.0532 15.8097C17.0612 15.8149 17.0776 15.8266 17.0941 15.8461C17.1099 15.8647 17.1392 15.9067 17.1409 15.9688C17.1417 16.0005 17.1349 16.031 17.1224 16.0579C17.1102 16.084 17.0944 16.1033 17.0806 16.1167C17.067 16.1299 17.0537 16.1389 17.0438 16.1448C17.0337 16.1508 17.0246 16.1549 17.0178 16.1576C17.0047 16.1629 16.9939 16.1655 16.9882 16.1668C16.9769 16.1692 16.9692 16.1696 16.9689 16.1697C16.9675 16.1697 16.9682 16.1697 16.9718 16.1697V15.7697C16.9624 15.7697 16.9525 15.7699 16.9426 15.7705C16.9337 15.7711 16.9195 15.7724 16.9036 15.7758C16.8955 15.7776 16.8829 15.7807 16.8683 15.7866C16.8607 15.7897 16.8511 15.7941 16.8404 15.8004C16.8299 15.8066 16.8162 15.8159 16.8022 15.8295C16.7881 15.8432 16.772 15.8628 16.7597 15.8892C16.747 15.9166 16.7401 15.9474 16.741 15.9795C16.7427 16.0423 16.7724 16.0851 16.7888 16.1044C16.8059 16.1247 16.8233 16.1372 16.8325 16.1432C16.8428 16.1501 16.852 16.1548 16.8583 16.1578C16.8707 16.1638 16.8818 16.1678 16.8889 16.1701C16.9036 16.175 16.9181 16.1784 16.9298 16.1807C16.9416 16.1831 16.9562 16.1854 16.9717 16.1866C16.9792 16.1872 16.9909 16.1878 17.0047 16.187C17.0116 16.1866 17.0219 16.1857 17.0341 16.1833C17.0449 16.1813 17.0657 16.1764 17.0894 16.1642C17.1119 16.1526 17.1557 16.1245 17.1813 16.067C17.1944 16.0377 17.1999 16.0066 17.1986 15.9765C17.1973 15.9474 17.19 15.9231 17.1821 15.905C17.1744 15.8871 17.1653 15.8733 17.158 15.8635C17.1506 15.8537 17.1433 15.8459 17.1375 15.8402C17.1263 15.8292 17.1158 15.8214 17.1091 15.8167C17.0957 15.8074 17.0831 15.8008 17.0751 15.7969C17.0661 15.7925 17.057 15.7885 17.0484 15.7849L16.8953 16.1544ZM16.9718 16.1697C17.0226 16.1697 17.2337 16.1793 17.4693 16.1845C17.5823 16.187 17.6977 16.1884 17.792 16.1864C17.8389 16.1854 17.8833 16.1836 17.9208 16.1803C17.9488 16.1779 18.0017 16.1729 18.0462 16.1544L17.8931 15.7849C17.9136 15.7764 17.9206 15.7788 17.8861 15.7818C17.8612 15.784 17.8267 15.7856 17.7837 15.7865C17.6981 15.7883 17.5895 15.7871 17.4781 15.7846C17.2648 15.7799 17.025 15.7697 16.9718 15.7697V16.1697ZM18.0462 16.1544C18.0496 16.153 18.0503 16.1529 18.0489 16.1533C18.0486 16.1534 18.0413 16.156 18.03 16.158C18.0243 16.1591 18.0133 16.1608 17.9991 16.1609C17.9918 16.161 17.9819 16.1606 17.9702 16.159C17.9588 16.1574 17.9431 16.1541 17.9254 16.1471C17.9076 16.14 17.8856 16.1283 17.8643 16.1088C17.8424 16.0887 17.8245 16.0631 17.8131 16.0335C17.7909 15.9755 17.802 15.9255 17.8094 15.9023C17.8172 15.8779 17.8279 15.8609 17.8332 15.853C17.8393 15.844 17.8449 15.8374 17.8483 15.8336C17.8549 15.8262 17.8603 15.8215 17.862 15.82C17.8642 15.8181 17.8657 15.817 17.8662 15.8166C17.8667 15.8162 17.8669 15.8161 17.867 15.816C17.867 15.816 17.8673 15.8159 17.8678 15.8155C17.8683 15.8152 17.8699 15.8143 17.8726 15.8129C17.8746 15.8119 17.881 15.8088 17.8904 15.8055C17.8951 15.8038 17.9034 15.8011 17.914 15.799C17.9234 15.7971 17.9433 15.7937 17.9687 15.7958C17.993 15.7978 18.0435 15.8068 18.0886 15.8495C18.1116 15.8714 18.1284 15.8977 18.1386 15.9257C18.1484 15.9527 18.1509 15.9775 18.1506 15.9967C18.1503 16.0157 18.1473 16.0314 18.1444 16.0426C18.1415 16.054 18.138 16.0633 18.1351 16.07C18.1296 16.0831 18.1238 16.0925 18.1206 16.0974C18.1144 16.1071 18.1093 16.1129 18.1091 16.1131C18.1081 16.1142 18.1086 16.1136 18.1111 16.111L17.8282 15.8283C17.8216 15.8349 17.8147 15.8421 17.8081 15.8496C17.8023 15.8563 17.7932 15.8672 17.7843 15.8809C17.7799 15.8878 17.7732 15.899 17.767 15.9135C17.7638 15.9209 17.7601 15.9309 17.757 15.9429C17.754 15.9547 17.7509 15.9709 17.7506 15.9904C17.7503 16.0101 17.7528 16.0353 17.7628 16.0627C17.7731 16.091 17.7901 16.1177 17.8134 16.1398C17.859 16.1831 17.9103 16.1923 17.9356 16.1944C17.9621 16.1966 17.9832 16.1931 17.9939 16.1909C18.0061 16.1884 18.0159 16.1853 18.0225 16.183C18.0355 16.1785 18.0461 16.1734 18.0528 16.17C18.0667 16.163 18.0793 16.1553 18.0893 16.1486C18.0992 16.1419 18.1113 16.1332 18.123 16.1231C18.1287 16.1182 18.1374 16.1103 18.1466 16.1001C18.1512 16.0949 18.1579 16.0869 18.1648 16.0767C18.1709 16.0676 18.1823 16.0494 18.1904 16.0241C18.1981 16 18.2092 15.9491 18.1867 15.8904C18.1752 15.8604 18.1571 15.8346 18.1349 15.8142C18.1134 15.7944 18.091 15.7825 18.0727 15.7752C18.0546 15.768 18.0384 15.7647 18.0263 15.7629C18.014 15.7612 18.0034 15.7608 17.9953 15.7609C17.9795 15.7611 17.9666 15.763 17.9585 15.7645C17.9425 15.7674 17.9289 15.7716 17.9205 15.7745C17.911 15.7777 17.9018 15.7813 17.8931 15.7849L18.0462 16.1544ZM18.1111 16.111C18.1137 16.1085 18.1142 16.1081 18.1132 16.109C18.1129 16.1092 18.1072 16.1143 18.0975 16.1206C18.0926 16.1237 18.0831 16.1295 18.0701 16.1351C18.0633 16.1379 18.0541 16.1414 18.0427 16.1444C18.0315 16.1472 18.0157 16.1502 17.9967 16.1505C17.9775 16.1508 17.9527 16.1484 17.9256 16.1385C17.8977 16.1283 17.8713 16.1116 17.8495 16.0885C17.8067 16.0434 17.7978 15.993 17.7958 15.9687C17.7937 15.9432 17.7971 15.9234 17.799 15.9141C17.8011 15.9034 17.8038 15.8952 17.8055 15.8904C17.8087 15.881 17.8119 15.8746 17.8129 15.8726C17.8143 15.8699 17.8152 15.8683 17.8155 15.8679C17.8158 15.8673 17.816 15.8671 17.816 15.867C17.816 15.867 17.8162 15.8668 17.8166 15.8662C17.8169 15.8658 17.818 15.8643 17.82 15.862C17.8214 15.8603 17.8261 15.855 17.8336 15.8483C17.8373 15.8449 17.8439 15.8394 17.8529 15.8333C17.8608 15.8279 17.8779 15.8172 17.9022 15.8094C17.9254 15.802 17.9755 15.7909 18.0336 15.8132C18.0632 15.8245 18.0888 15.8425 18.1089 15.8644C18.1284 15.8856 18.1401 15.9076 18.1472 15.9255C18.1542 15.9431 18.1574 15.9588 18.159 15.9703C18.1607 15.9819 18.161 15.9918 18.1609 15.9991C18.1608 16.0133 18.1591 16.0242 18.158 16.03C18.156 16.0413 18.1534 16.0486 18.1533 16.0489C18.1529 16.0502 18.1531 16.0495 18.1545 16.0462L17.7849 15.8931C17.7813 15.9018 17.7777 15.9111 17.7745 15.9205C17.7716 15.9289 17.7674 15.9425 17.7645 15.9585C17.763 15.9666 17.7611 15.9795 17.7609 15.9953C17.7609 16.0034 17.7612 16.014 17.763 16.0263C17.7647 16.0383 17.768 16.0545 17.7752 16.0726C17.7825 16.0909 17.7944 16.1133 17.8141 16.1348C17.8345 16.157 17.8604 16.1752 17.8904 16.1867C17.9491 16.2092 18 16.1981 18.0242 16.1903C18.0495 16.1822 18.0677 16.1709 18.0768 16.1648C18.087 16.1579 18.0949 16.1512 18.1001 16.1466C18.1104 16.1374 18.1183 16.1286 18.1232 16.123C18.1333 16.1112 18.142 16.0992 18.1486 16.0892C18.1553 16.0792 18.1631 16.0666 18.1701 16.0527C18.1734 16.0461 18.1785 16.0354 18.183 16.0224C18.1853 16.0159 18.1885 16.006 18.1909 15.9939C18.1931 15.9832 18.1966 15.962 18.1944 15.9355C18.1923 15.9103 18.1831 15.859 18.1399 15.8134C18.1178 15.7901 18.0911 15.7731 18.0628 15.7628C18.0354 15.7528 18.0101 15.7503 17.9904 15.7506C17.9709 15.7509 17.9546 15.754 17.9428 15.757C17.9308 15.7601 17.9209 15.7638 17.9134 15.767C17.8989 15.7732 17.8877 15.7799 17.8808 15.7844C17.8671 15.7932 17.8562 15.8023 17.8495 15.8082C17.842 15.8148 17.8349 15.8216 17.8282 15.8283L18.1111 16.111ZM18.1545 16.0462C18.1729 16.0016 18.1779 15.9487 18.1803 15.9208C18.1836 15.8833 18.1854 15.8389 18.1864 15.792C18.1884 15.6977 18.1871 15.5823 18.1845 15.4693C18.1793 15.2337 18.1697 15.0226 18.1697 14.9718H17.7697C17.7697 15.0251 17.7799 15.2648 17.7846 15.4781C17.7871 15.5895 17.7883 15.6981 17.7865 15.7837C17.7856 15.8267 17.784 15.8612 17.7819 15.8861C17.7788 15.9206 17.7764 15.9136 17.7849 15.8931L18.1545 16.0462ZM18.1697 14.9718C18.1697 14.9682 18.1698 14.9675 18.1697 14.9689C18.1696 14.9692 18.1692 14.9769 18.1668 14.9881C18.1655 14.9938 18.1629 15.0046 18.1576 15.0177C18.1549 15.0245 18.1508 15.0336 18.1448 15.0437C18.139 15.0536 18.13 15.0669 18.1167 15.0805C18.1034 15.0943 18.0841 15.1102 18.058 15.1223C18.031 15.1349 18.0005 15.1417 17.9688 15.1408C17.9066 15.1392 17.8646 15.1098 17.846 15.0941C17.8265 15.0775 17.8149 15.0611 17.8096 15.0531C17.8036 15.0441 17.7997 15.0364 17.7975 15.0318C17.7932 15.0228 17.7909 15.0161 17.7902 15.014C17.7893 15.0111 17.7888 15.0093 17.7887 15.0088C17.7885 15.0082 17.7884 15.0079 17.7884 15.0078C17.7884 15.0078 17.7884 15.0075 17.7883 15.0068C17.7882 15.0063 17.7879 15.0045 17.7877 15.0015C17.7875 14.9993 17.7871 14.9922 17.7876 14.9822C17.7879 14.9772 17.7886 14.9686 17.7907 14.9579C17.7925 14.9485 17.797 14.9289 17.8087 14.9062C17.8198 14.8845 17.8474 14.8413 17.9041 14.816C17.9331 14.803 17.9639 14.7976 17.9937 14.7989C18.0224 14.8002 18.0463 14.8074 18.0639 14.8151C18.0814 14.8226 18.0948 14.8314 18.104 14.8384C18.1134 14.8454 18.1206 14.8522 18.1258 14.8574C18.1357 14.8675 18.1422 14.8765 18.1455 14.8813C18.1521 14.8908 18.1554 14.8977 18.1556 14.898C18.1562 14.8992 18.1558 14.8986 18.1545 14.8953L17.7849 15.0483C17.7885 15.057 17.7925 15.0661 17.7969 15.075C17.8008 15.083 17.8074 15.0956 17.8167 15.109C17.8213 15.1157 17.8291 15.1262 17.8401 15.1375C17.8458 15.1433 17.8536 15.1505 17.8635 15.158C17.8732 15.1653 17.8871 15.1744 17.905 15.1821C17.9231 15.1899 17.9473 15.1973 17.9765 15.1986C18.0066 15.1999 18.0377 15.1944 18.0671 15.1813C18.1245 15.1557 18.1527 15.1118 18.1643 15.0893C18.1764 15.0657 18.1813 15.0448 18.1834 15.034C18.1857 15.0219 18.1866 15.0116 18.187 15.0047C18.1878 14.9909 18.1872 14.9792 18.1866 14.9717C18.1855 14.9562 18.1831 14.9416 18.1808 14.9298C18.1784 14.9181 18.175 14.9036 18.1701 14.8889C18.1678 14.8818 18.1639 14.8707 18.1579 14.8583C18.1549 14.852 18.1501 14.8428 18.1433 14.8325C18.1372 14.8234 18.1248 14.806 18.1045 14.7888C18.0851 14.7724 18.0424 14.7427 17.9795 14.741C17.9474 14.7401 17.9165 14.747 17.8892 14.7597C17.8627 14.772 17.8431 14.7881 17.8294 14.8022C17.8159 14.8163 17.8065 14.8299 17.8003 14.8404C17.794 14.8511 17.7896 14.8607 17.7866 14.8683C17.7807 14.8829 17.7776 14.8956 17.7758 14.9036C17.7724 14.9195 17.7711 14.9337 17.7705 14.9425C17.7699 14.9525 17.7697 14.9624 17.7697 14.9718H18.1697ZM18.1545 14.8953C18.1531 14.8919 18.1529 14.8913 18.1533 14.8926C18.1534 14.8929 18.156 14.9002 18.158 14.9115C18.1591 14.9172 18.1608 14.9282 18.1609 14.9423C18.161 14.9497 18.1607 14.9596 18.159 14.9712C18.1574 14.9826 18.1542 14.9983 18.1472 15.016C18.1401 15.0338 18.1284 15.0558 18.1089 15.077C18.0888 15.099 18.0632 15.1169 18.0336 15.1283C17.9755 15.1505 17.9254 15.1395 17.9022 15.1321C17.8779 15.1243 17.8608 15.1135 17.8529 15.1082C17.8439 15.1021 17.8373 15.0965 17.8336 15.0931C17.8261 15.0865 17.8214 15.0811 17.82 15.0794C17.818 15.0772 17.8169 15.0757 17.8166 15.0752C17.8162 15.0747 17.816 15.0745 17.816 15.0744C17.816 15.0744 17.8158 15.0741 17.8155 15.0736C17.8152 15.0731 17.8143 15.0715 17.8129 15.0688C17.8119 15.0668 17.8087 15.0605 17.8055 15.0511C17.8038 15.0463 17.8011 15.0381 17.799 15.0274C17.7971 15.0181 17.7937 14.9982 17.7958 14.9727C17.7978 14.9485 17.8067 14.898 17.8495 14.8529C17.8713 14.8299 17.8977 14.8131 17.9256 14.8029C17.9527 14.793 17.9775 14.7906 17.9967 14.7909C18.0157 14.7912 18.0315 14.7942 18.0427 14.7971C18.0541 14.8 18.0633 14.8035 18.0701 14.8064C18.0831 14.8119 18.0926 14.8177 18.0975 14.8209C18.1072 14.8271 18.1129 14.8322 18.1132 14.8325C18.1142 14.8334 18.1137 14.833 18.1111 14.8304L17.8282 15.1132C17.8349 15.1198 17.842 15.1267 17.8495 15.1333C17.8562 15.1391 17.8671 15.1483 17.8808 15.1571C17.8877 15.1615 17.8989 15.1683 17.9134 15.1744C17.9209 15.1776 17.9308 15.1813 17.9428 15.1844C17.9546 15.1875 17.9709 15.1906 17.9904 15.1909C18.0101 15.1912 18.0354 15.1887 18.0628 15.1787C18.0911 15.1683 18.1178 15.1514 18.1399 15.128C18.1831 15.0824 18.1923 15.0312 18.1944 15.0059C18.1966 14.9794 18.1931 14.9583 18.1909 14.9476C18.1885 14.9355 18.1853 14.9256 18.183 14.919C18.1785 14.906 18.1734 14.8954 18.1701 14.8887C18.1631 14.8749 18.1553 14.8622 18.1486 14.8523C18.142 14.8423 18.1333 14.8302 18.1232 14.8185C18.1183 14.8128 18.1104 14.8041 18.1001 14.7949C18.0949 14.7903 18.087 14.7836 18.0768 14.7767C18.0677 14.7705 18.0495 14.7592 18.0242 14.7511C18 14.7434 17.9491 14.7323 17.8904 14.7548C17.8604 14.7663 17.8345 14.7844 17.8141 14.8067C17.7944 14.8281 17.7825 14.8505 17.7752 14.8688C17.768 14.8869 17.7647 14.9031 17.763 14.9152C17.7612 14.9275 17.7609 14.9381 17.7609 14.9462C17.7611 14.9619 17.763 14.9749 17.7645 14.9829C17.7674 14.999 17.7716 15.0125 17.7745 15.0209C17.7777 15.0304 17.7813 15.0396 17.7849 15.0483L18.1545 14.8953ZM18.1111 14.8304L14.1197 10.839L13.8368 11.1218L17.8282 15.1132L18.1111 14.8304ZM14.1187 10.838C14.1183 10.8376 14.1182 10.8375 14.1183 10.8376C14.1184 10.8377 14.1186 10.8379 14.1189 10.8382C14.1192 10.8385 14.1197 10.8391 14.1205 10.8398C14.1211 10.8405 14.1225 10.842 14.1243 10.844C14.1252 10.845 14.1267 10.8467 14.1285 10.8489C14.1294 10.85 14.1307 10.8514 14.1321 10.8532C14.1334 10.8549 14.1353 10.8574 14.1376 10.8606C14.1396 10.8634 14.1432 10.8686 14.1473 10.8754C14.1493 10.8789 14.1521 10.8839 14.1551 10.89C14.1579 10.8959 14.1621 10.9053 14.1659 10.9174C14.1675 10.9227 14.1704 10.9346 14.1718 10.9412C14.1731 10.9493 14.1748 10.9676 14.175 10.9777C14.1746 10.9902 14.1708 11.0178 14.1671 11.0326C14.1613 11.0498 14.1439 11.0841 14.1322 11.1007C14.1182 11.1166 14.0865 11.143 14.0693 11.1534C14.0532 11.1611 14.0222 11.1714 14.0076 11.1743C13.9955 11.176 13.9735 11.177 13.9636 11.1767C13.9556 11.1761 13.9412 11.1741 13.9348 11.1729C13.9295 11.1718 13.9199 11.1693 13.9156 11.168C13.9119 11.1668 13.9052 11.1645 13.9022 11.1633C13.895 11.1605 13.8892 11.1577 13.8852 11.1557C13.8775 11.1518 13.8716 11.1482 13.8684 11.1462C13.8649 11.144 13.8621 11.1421 13.8602 11.1408C13.8583 11.1394 13.8567 11.1383 13.8555 11.1373C13.8531 11.1356 13.8513 11.1341 13.8501 11.1332C13.849 11.1323 13.848 11.1315 13.8473 11.1309C13.846 11.1298 13.845 11.1289 13.8444 11.1285C13.8433 11.1275 13.8426 11.1268 13.8424 11.1267C13.8419 11.1263 13.8418 11.1262 13.842 11.1263C13.8422 11.1265 13.8421 11.1264 13.8416 11.1259C13.8414 11.1258 13.8407 11.1251 13.8397 11.1241C13.8392 11.1236 13.8382 11.1226 13.8371 11.1213C13.8364 11.1207 13.8356 11.1198 13.8345 11.1187C13.8336 11.1176 13.832 11.1159 13.8301 11.1136C13.8291 11.1125 13.8278 11.111 13.8263 11.1091C13.8249 11.1073 13.8227 11.1047 13.8203 11.1013C13.8181 11.0983 13.8141 11.0927 13.8097 11.0852C13.8074 11.0814 13.8043 11.0758 13.801 11.0688C13.7996 11.0659 13.7968 11.0594 13.7954 11.0558C13.7938 11.0516 13.7907 11.0422 13.7892 11.037C13.7875 11.0307 13.7846 11.0164 13.7834 11.0085C13.7824 10.9987 13.782 10.9767 13.7827 10.9645C13.7847 10.9497 13.7928 10.9181 13.7994 10.9015C13.8085 10.8836 13.8326 10.8502 13.8476 10.8352C13.8633 10.8223 13.8963 10.8026 13.9131 10.7956C13.9277 10.7909 13.9549 10.7852 13.9674 10.7839C13.9775 10.7835 13.9959 10.7839 14.0041 10.7847C14.0107 10.7855 14.0228 10.7877 14.0282 10.7889C14.0406 10.7918 14.0503 10.7954 14.0563 10.7978C14.0626 10.8003 14.0677 10.8028 14.0714 10.8046C14.0784 10.8081 14.0839 10.8114 14.0869 10.8132C14.0901 10.8152 14.0928 10.817 14.0946 10.8182C14.0965 10.8195 14.098 10.8206 14.0992 10.8215C14.1015 10.8231 14.1033 10.8245 14.1043 10.8253C14.1065 10.827 14.1081 10.8283 14.1087 10.8289C14.1096 10.8295 14.1102 10.8301 14.1105 10.8303C14.1108 10.8306 14.111 10.8308 14.1111 10.8309C14.1112 10.831 14.1111 10.8309 14.1107 10.8305L13.8459 11.1303C13.8469 11.1312 13.8481 11.1322 13.8492 11.1332C13.8502 11.134 13.8518 11.1355 13.8538 11.1371C13.8548 11.1379 13.8566 11.1394 13.8589 11.1412C13.8601 11.1421 13.8619 11.1435 13.8643 11.1452C13.8655 11.1461 13.867 11.1472 13.8689 11.1485C13.8708 11.1497 13.8734 11.1515 13.8767 11.1536C13.8797 11.1554 13.8852 11.1587 13.8923 11.1622C13.8959 11.1641 13.9011 11.1665 13.9074 11.1691C13.9134 11.1715 13.9231 11.175 13.9355 11.178C13.9409 11.1792 13.953 11.1813 13.9596 11.1822C13.9678 11.1829 13.9862 11.1834 13.9963 11.1829C14.0088 11.1816 14.036 11.1759 14.0506 11.1712C14.0673 11.1642 14.1004 11.1445 14.1161 11.1316C14.131 11.1166 14.1552 11.0832 14.1643 11.0653C14.1709 11.0487 14.179 11.0171 14.1809 11.0023C14.1817 10.9902 14.1813 10.9681 14.1803 10.9583C14.1791 10.9504 14.1762 10.9362 14.1745 10.9298C14.173 10.9246 14.1699 10.9152 14.1683 10.911C14.1669 10.9074 14.1641 10.9009 14.1627 10.898C14.1594 10.891 14.1563 10.8854 14.154 10.8816C14.1496 10.8741 14.1455 10.8684 14.1433 10.8654C14.1409 10.8621 14.1388 10.8594 14.1373 10.8576C14.1358 10.8557 14.1345 10.8541 14.1335 10.853C14.1315 10.8507 14.1299 10.8489 14.1289 10.8478C14.1278 10.8466 14.1268 10.8456 14.1261 10.8449C14.1248 10.8435 14.1237 10.8423 14.123 10.8416C14.1215 10.8402 14.1203 10.839 14.1195 10.8383C14.1179 10.8367 14.1163 10.8352 14.115 10.8339C14.1137 10.8327 14.1121 10.8312 14.1104 10.8297C14.1096 10.829 14.1083 10.8278 14.1068 10.8265C14.106 10.8259 14.1048 10.8248 14.1033 10.8236C14.1025 10.8229 14.1015 10.8221 14.1002 10.8211C14.099 10.8201 14.0971 10.8186 14.0947 10.8168C14.0935 10.8159 14.0918 10.8147 14.0899 10.8133C14.088 10.812 14.0852 10.81 14.0816 10.8078C14.0785 10.8058 14.0726 10.8022 14.0648 10.7983C14.0608 10.7963 14.055 10.7935 14.0478 10.7907C14.0448 10.7896 14.0381 10.7872 14.0344 10.786C14.0301 10.7848 14.0205 10.7823 14.0152 10.7811C14.0088 10.7799 13.9944 10.778 13.9864 10.7773C13.9765 10.777 13.9545 10.7781 13.9424 10.7797C13.9278 10.7827 13.8968 10.7929 13.8807 10.8006C13.8635 10.811 13.8318 10.8374 13.8178 10.8533C13.8061 10.8699 13.7887 10.9042 13.7829 10.9214C13.7792 10.9363 13.7754 10.9638 13.775 10.9763C13.7752 10.9865 13.7769 11.0047 13.7782 11.0129C13.7795 11.0194 13.7825 11.0313 13.7841 11.0366C13.7879 11.0488 13.7921 11.0582 13.7949 11.064C13.7979 11.0702 13.8007 11.0751 13.8027 11.0786C13.8068 11.0855 13.8104 11.0907 13.8124 11.0935C13.8147 11.0967 13.8167 11.0992 13.818 11.101C13.8194 11.1028 13.8207 11.1043 13.8216 11.1054C13.8235 11.1076 13.825 11.1094 13.826 11.1105C13.828 11.1127 13.8296 11.1144 13.8304 11.1153C13.8322 11.1171 13.8337 11.1187 13.8347 11.1196C13.8357 11.1207 13.8368 11.1217 13.8378 11.1227L14.1187 10.838ZM12.8401 4.13793C13.0342 4.32893 13.2102 4.65203 13.3725 5.02183C13.4523 5.20353 13.5262 5.39033 13.5961 5.56983C13.6654 5.74767 13.7317 5.92094 13.7939 6.06874L14.1626 5.91346C14.1031 5.7722 14.0397 5.60647 13.9688 5.42466C13.8987 5.24451 13.8222 5.05101 13.7388 4.86105C13.5748 4.48752 13.3737 4.10184 13.1207 3.85285L12.8401 4.13793ZM13.7939 6.06874C13.8531 6.2092 13.8757 6.28657 13.883 6.33363C13.8888 6.37031 13.8855 6.38703 13.8777 6.41211C13.8718 6.43102 13.8368 6.52131 13.8171 6.60244C13.7938 6.6983 13.7776 6.81934 13.7783 6.98977L14.1783 6.98814C14.1777 6.84489 14.1913 6.75663 14.2058 6.69691C14.2239 6.62246 14.2347 6.61089 14.2596 6.53103C14.2825 6.45733 14.2949 6.37834 14.2782 6.27176C14.2632 6.17554 14.2252 6.06207 14.1626 5.91346L13.7939 6.06874ZM13.7783 6.98977C13.7796 7.3122 13.8421 7.69922 13.8695 8.02145C13.8986 8.36469 13.8934 8.66553 13.7933 8.90853L14.1632 9.0608C14.302 8.72371 14.298 8.34038 14.2681 7.98762C14.2363 7.61386 14.1795 7.29307 14.1783 6.98814L13.7783 6.98977ZM13.7933 8.90853C13.6675 9.21412 13.5374 9.58181 13.3732 9.95276C13.21 10.3215 13.0325 10.6454 12.839 10.839L13.1219 11.1218C13.3718 10.8718 13.5738 10.4879 13.739 10.1146C13.9031 9.74367 14.0502 9.33531 14.1632 9.0608L13.7933 8.90853ZM12.839 10.839C12.6455 11.0325 12.3216 11.21 11.9528 11.3732C11.5816 11.5374 11.2143 11.6673 10.9085 11.7933L11.0609 12.1632C11.335 12.0502 11.7438 11.903 12.1146 11.739C12.4879 11.5738 12.8719 11.3718 13.1219 11.1218L12.839 10.839ZM10.9085 11.7933C10.6657 11.8934 10.3648 11.8986 10.0215 11.8695C9.69922 11.8421 9.31212 11.7795 8.98983 11.7782L8.9882 12.1782C9.293 12.1795 9.61382 12.2363 9.98766 12.2681C10.3405 12.298 10.7239 12.302 11.0609 12.1632L10.9085 11.7933ZM8.98983 11.7782C8.81945 11.7775 8.69842 11.7938 8.60256 11.8171C8.52146 11.8368 8.43109 11.8718 8.41218 11.8777C8.38706 11.8855 8.37032 11.8888 8.33363 11.8831C8.28659 11.8757 8.20924 11.8531 8.06885 11.7939L7.91347 12.1625C8.06203 12.2252 8.1755 12.2632 8.27174 12.2782C8.37835 12.2949 8.45737 12.2825 8.53108 12.2596C8.61101 12.2347 8.62255 12.2239 8.69705 12.2058C8.75678 12.1912 8.84502 12.1776 8.9882 12.1782L8.98983 11.7782ZM8.06885 11.7939C7.92107 11.7316 7.74781 11.6653 7.56996 11.5961C7.39044 11.5262 7.20362 11.4523 7.02189 11.3725C6.65203 11.2102 6.32893 11.0342 6.13806 10.8401L5.85286 11.1206C6.1018 11.3737 6.4876 11.5749 6.86116 11.7388C7.05115 11.8222 7.24466 11.8986 7.4248 11.9688C7.6066 12.0396 7.7723 12.103 7.91347 12.1625L8.06885 11.7939ZM6.13806 10.8401C5.74004 10.4354 5.4991 9.798 5.36143 9.08191C5.22475 8.37096 5.19508 7.6113 5.19761 6.98977L4.79761 6.98814C4.79504 7.62033 4.82483 8.40953 4.96862 9.15743C5.11142 9.90019 5.37196 10.6316 5.85286 11.1206L6.13806 10.8401ZM5.19761 6.98977C5.20015 6.36499 5.22849 5.86205 5.35837 5.40966C5.48644 4.96358 5.71611 4.55775 6.13691 4.13678L5.85401 3.854C5.38865 4.31955 5.12194 4.78364 4.9739 5.29928C4.82767 5.80862 4.80017 6.3592 4.79761 6.98814L5.19761 6.98977ZM6.13691 4.13678C6.55766 3.71586 6.96358 3.4862 7.40975 3.35817C7.86225 3.22833 8.36528 3.20008 8.98983 3.19753L8.9882 2.79754C8.35953 2.8001 7.80886 2.82751 7.29943 2.97369C6.78368 3.12168 6.31942 3.3884 5.85401 3.854L6.13691 4.13678ZM8.98983 3.19753C9.61112 3.195 10.3709 3.22458 11.0819 3.36123C11.7981 3.49886 12.4356 3.7398 12.8401 4.13793L13.1207 3.85285C12.6319 3.37171 11.9003 3.11117 11.1574 2.96841C10.4094 2.82467 9.62012 2.79496 8.9882 2.79754L8.98983 3.19753Z" fill="white" mask="url(#path-1-outside-1_352_123)"/>
</svg>
